<?xml version="1.0" encoding="UTF-8"?>
<svg version="1.1" viewBox="0 0 2000 2000" width="500" height="500" xmlns="http://www.w3.org/2000/svg">
<path transform="translate(1109,121)" d="m0 0h19l20 2 18 4 24 9 11 6 19 13 17 12 13 11 9 10 8 11 7 11 5 5 4-2 6-4 10-9 14-12 17-13 14-8 18-6 20-4 13-1h18l12 2 25 11 16 9 14 12 10 10 11 14 7 10 3 7v17l-3 19-3 10-8 15-8 10-10 9-10 5-14 4-16 2h-9l-15-2-9-4-11-7-11-10-4-7-2-14 1-14 2-10 6-10 8-6 10-4v-2l-11 1-15 6-9 7-7 8-11 18-3 6 1 7 10 9 11 9 11 8 21 14 12 12 8 7 37 37 11 14 12 14 11 13 10 14 16 24 12 19 8 14 13 21 11 14 2 1 19 1 12 3 16 6 12 9 10 9 9 13 7 15 2 9v6l-4 6-7 3-28-1-11 2-8 4-12 9-7 8-8 14-5 12-8 23-5 15-5 23-1 9-1 24v45l1 28 9 40 3 10 6 1h7l13 4 12 5 12 8 8 6 7 8 6 10 6 15 2 13v23l-2 14-5 16-4 9-7 11-8 6-12 6-9 2-10 1h-10l-21-3-9-4-19-10-12-11-9-10-4-6v-3l-4-2-4-3v-2l-3-1-7-10-13-26-7-11-11-23-5-10-9-29-10-36-11-45-5-30-5-39-2-19-2-9-10-2-24-7-16-6-10-9-8-10-5-5-4-1-2 54-1 52v195l1 32 2 9 8 6 23 12 18 10 30 18 11 6 15 9 14 10 11 9 13 10 17 12 11 6 18 14 15 14 16 13 13 10 10 9 5 5 17 16 18 18 33 27 9 8 11 9 14 13 14 11 16 12 10 6 19 8 18 3h18l10 3 13 11 6 10 2 8-1 12-4 13-7 12-11 12-22 14-10 2h-10l-12-1h-14l-6 5-7 11-7 10-9 14-18 27-15 22-8 11-11 12-8 11-14 18-9 10-11 14-9 10-8 11-14 15-10 10-8 7-11 12-6 6h-2l-2 4-9 8-6 5-6 7-5 5h-2l-2 4-11 10-12 8-10 8-10 9-8 9-5 9-1 8 3 7 7 10 8 9 8 7 7 7 16 12 5 2h3l-1-9-1-13v-14l2-12 7-14 8-11 6-7 15-10 11-5 8-2 11-1h15l19 2 15 4 17 8 11 8 8 7 7 8 7 9 5 14v48l-4 11-12 20-8 10-13 12-13 8-15 5-18 4-14 2h-26l-39-4-26-7-13-3-16-8-11-6-12-9-9-7-16-8-10-9-16-11-12-9-5-2-7-1-10 3-16 10-28 11-23 11-22 10-19 8-24 10-24 9-13 4-47 10-34 7-29 4-13 4-5 3h-2l-6 15-6 18-8 13-10 9-8 4h-9l-6-4-13-13-8-13-5-19-3-12-4-2-6-2-41-5-40-7-37-8-37-9-44-14-10-5-21-9-19-7-15-6-11-4-8-2h-6l-7 5h-2l-2 4-13 10-18 12-11 9-12 7-19 7-14 4-13 3-5 4-15 3-33 3-17 1h-18l-28-4-13-4-24-10-16-8-13-10-12-11-8-7-7-7-8-14-4-15-3-23 2-16 3-12 6-11 10-13 7-8 18-12 15-7 10-2h29l18 4 16 10 12 9v2h2l8 13 6 11 2 5 1 7v25l-3 12-9 15v5l3 2 8-1 15-6 12-8 10-7 11-9 6-5 8-10 6-8 8-9 3-6-1-6-6-8-9-10-15-15-7-8-23-23-6-8-10-11-8-10-9-10-11-12-8-11-9-16-12-19-14-24-13-26-12-26-8-21-6-22-8-45-4-6-7 1-16 7-16 4-19 3-10 1h-24l-12-3-12-6-12-10-9-7-7-7-6-9-1-3v-48l5-5 8-5 10-4 16-2 15-2 16-7 16-10 12-11 10-12 12-17 14-21 7-11 11-23 8-24 11-42 8-31 4-20 2-29v-37l-4-19-7-21-3-5-5 1-11 11-9 4-13 2h-25l-11-4-9-7-7-6-8-10-7-12-5-16-1-5v-15l3-14 5-12 8-11 5-6 9-6 14-3 16-2 6-4 4-9 4-10 5-6 7-3h11l10 3 16 11 12 11 10 13 10 14 11 13 14 15 8 12 10 10 17 29 12 23 10 25 9 19 9 39 6 32 3 29 2 4 2 19v32l-1 25 3 12 1 1h8l10-2h18l16 3 16 8 8 9 4 10 1 10-1 9-9 11-10 7-11 6-9 11-8 10-10 19-6 13-5 21-4 45-1 8v13l4 39 4 16 12 41 10 28 6 15 10 18 9 15 7 9 4 2 5-7 8-29 8-37 4-20v-15l-4-4-11-4-9-7-7-7-6-9-2-11v-13l3-9 7-8 6-9 6-7 6-12 11-27 6-23 2-15 4-17 6-37 2-25 3-31 2-22 1-18 1-1 7 1 1 3-1 11-2 61-3 20-3 24-13 65-6 15-5 12-10 19-10 14-8 7-3 5-1 5v11l3 9 4 5 5 3h8l5-5 10-5 4-5 7-20 4-9 5-1 3 3v8l-6 22-4 26-6 29-8 39-7 23-2 10-9 37-8 18-2 5-2 9-6 17-8 18-6 12-9 16-5 10-16 24-13 19-13 12-18 14-15 8-19 8-4 1h-16l-4-1-18-1-36-6-20-7-8-6-8-8-7-11-4-8-1-5v-14l5-10 11-11 11-7 6-2h11l14 4 11 8 7 10 1 3v8l-6 12-6 8-7 3h-8l-12-3-4-4v-7l1-2h7l7 2h8l5-5 1-8-3-7-6-4-6-2h-10l-9 3-6 5-5 10-1 3v8l6 11 8 9 10 5 10 3 10 1 9-3 8-4 16-7 3-1 2-4 4-14 2-11v-14h-11l-1-5 4-5-2-6-5-4-9-1-3 3-4-2-3-6-1-7-1-1h-10l-17-3h-9l-24 8 6 7 1 5-10 10-7 6-4 8-2 8v12l4 13 8 14 10 14 13 12 14 6 36 12 5 1h15l13-1h11l24-6 11-7 12-8 8-8 15-11 24-24 8-10 9-15 9-16 19-38 7-15 5-13 2-10 4-9 10-30 7-24 7-31 3-14 3-19 1-2 2-26 3-28v-31l-2-13-5-8-7-6-8-4-1-1 1-7 4-9 6-7 4-8 7-24 7-32 2-13 2-20 1-6 1-16 3-22v-64l1-10 2-2-1-5-1-1-1-19v-45l1-18 5-3 4 2 3 14h8l-2-9-2-7 4-6 2-9h-7l-6 5-2 6-5-1-2-5v-42l1-17-4-1v8l-2 10-10-4h-2v48l-1 4-1 15-4 1-1-1-1-9v-45l2-27-1-34-2-7-8-10-8-6-22-12-25-14-19-12-12-8-19-14-13-10-13-11-11-9-13-11-16-15-8-7-10-9-19-19-8-7-10-10-8-7-15-14-11-11-8-7-44-44-17-13-14-11-8-12-7-11-3-6 1-9 6-10 11-13 18-20 7-8 14-15 13-17 6-8 8-11 9-11 11-13 11-14 9-10 7-8 12-14 9-10 7-8 24-24 14-11 7-7 8-10 11-10 8-7 8-8 28-22 22-14 16-10 16-8 15-8 1-3-8-16-5-6-6-1-3 8-3 12-7 11-8 8-12 6-15 4-11 2h-24l-19-3-16-8-11-8-9-10-7-14-6-20v-21l6-15 8-13 9-10 10-9 16-10 24-11 25-5h23l14 2 19 5 20 8 12 6 18 10 14 8 5 1 8-8 9-13 7-8 10-10 26-15 12-4 5-1h22l16 3 12 6 3 4 3 5 6 4 4 5 6 13 1 9-4 6-5 4-14 5-6 5-2 4v6l3 3 2 1h8l20-7 15-4 13-2 31-3 16-3 18-2 46-5 5-1 2-5 10-13 15-15 8-7 11-9 13-9 7-5 19-7 11-4 23-3zm-61 31-9 6-8 3-1 3 2 9 3 3 5-2 8-6 7-4-1-7-2-5zm-31 17-1 5 3 7 4 1 2-1-1-6-4-6zm89-34-23 3-6 8-6-1-5-3-5 2-3 4 4 8 5 6h39l15 3 13 5 10 6 13 11 16 8 12 12 9 17 6 9 6 15 1 14 3 16 3 37 3 9 2 16 1 21 2 9 1 6-1 4v14l1 2v12l-1 17 1 2v88l-2 5 1 4 1 1v23l-1 3v25l1 21-1 6 1 9-1 6 1 1v87l-1 10 1 3v49l-1 48 1 2v39l1 23 1 1 8 1 1 1v22l1 3-1 2-1 41 5-1 1-2v-83l7 1 1 5 1 12 1 1h5l1-7v-13l-1-5v-8l6-5 1-8-6-2-14-2-1-10-1-96 1-76v-102l-1-23 1-9-1-43v-140l-2-12-2-5-4-26-3-9-2-15-6-17-10-15v-7l4-1 7 4 7 7 7 12 10 11 4 6 7 7 5 3 13 2 12 2 8-7 6-9 7-7 6-8 9-11 5-4 8-4h4l-2 5-9 12-6 10-4 8-4 9-6 12-6 15v2h-2l-6 29-8 47-4 26-3 30-2 17-1 40-1 22-1 53-1 1 1 13 1 9v13l-3 5 1 19v15l-1 9 2 16v17l1 13-3 20v16l1 4v17l-2 15 1 4v51l3 10v52l2 1h6l2-1 4-12 4-15 2-7 1-13v-39l-1-117-1-4v-17l1-11 1-176 4-69 3-6 2-20 3-16 1-20 4-16 10-35 10-23 8-15 11-14 4-5 14-9 12-6 16-3 13 1 11 4 15 10 7 7 3 6v10l-7 11-4 5-4 2h-8v-7l4-4 4-3 1-5-5-5-14-7-8 1-6 4-6 7-3 10-1 4v8l5 8 5 5 10 5 17 6h11l11-3 14-7 14-12 4-6 4-12 1-7v-30l-4-13-7-8-7-7-7-8-9-8-16-6-18-5-6-1h-29l-17 3-16 5-16 8-11 6-10 9-5 4-5 5-11 12-10 15-5 6-5 1-5-5-4-5-8-16-4-10-7-9-11-11-8-7-12-11-11-9-10-8-16-7-18-6-33-5zm-343 20-14 3-19 7-11 7-9 8-8 11-8 16-2 7-1 16-3 5-5 2-5-5-8-9-8-7-9-9-11-7-16-11-17-8-23-6-17-2-2-1h-9l-13 3-21 6-16 8-11 7-6 5-8 10-5 10-4 14-2 15-3 1v5l3 5 3 13 6 9 11 11 9 4 16 5 9 1h12l12-2 12-5 10-8 6-9 3-10v-14l-4-10-7-7-10-5-4-1h-13l-10 3-10 6-4 6-1 3v11l3 7 4 3 5 2h6l6-4 2-5-1-5 2-5 5-1 7 3 1 2v10l-3 10-6 8-8 4-10 2-13-1-12-6-11-10-6-12-1-5v-11l2-10 8-16 11-14 9-6 12-6 12-4 6-1h30l18 2 13 5 16 8 9 3 12 9 2 6-1 3-5-1-16-9-8-4-18-6-4 1 2 4 8 6 11 10 7 9v4l-5 1-6-8-10-8-16-9-15-6-11-2h-15l-19 3-9 4-7 6-11 15-3 13v9l2 2 6 1 1-1 1-18 3-7 9-10 8-4 7-2h19l14 4 19 10 8 4 13 11 12 11 3 3h2l2 4 6 9 7 15 8 19 10 37 5 45 2 53 1 6-5-5-6-7-7-1-5 5-8 16-12 20-11 18-13 22-9 15-6 12-6 17-8 20-4 14-2 13v14l4 18 6 15 13 29 11 24 8 16 6 10 13 17 14 17 6 8 4 4 5 1 3-5 3-18 1-64 5-2v41l1 37 8 4 2 4 2 19 5 1 1-1v-114l-1-35v-71l-1-23 1-32-1-5v-22l1-6v-76l-2-7v-14l-3-13-7-9-2-3v-16l-1-10-2-21-4-14-8-19-8-16-12-13-7-8-1-6 3-3h5l6 9 4 10 14 11 7 17 6 17 4 10 2 9 3 20 4 27 8 16 8 5 1 6-5 4-4 3 1 5 4 8 2 2-1 6-4 11-1 14v20l6 7 4 3 1 4-4 2-7 8-1 3v16l2 7 12 6 2 4v3l-11 3-3 4v18l1 17 12 3 1 1 1 8h-14v15l6 7-2 5-6 7-1 2v12l1 13 1 36-1 28-1 17 1 2v16l-1 17 3 2 1-1 2-11 6-2 2 10 1 14 5 1 1-2v-24l10-2 4-8 1-12 1-8v-16l-1-25-2-7-4-6v-6l5-4 1-17v-20l-2-16-2-4-10-2v-7l9-7 3-9v-25l-4-8-4-6v-6l6-8 3-9v-11l-2-10-5-14 7-14v-27l7 2 3 4 5 20 7 20 20 38 1 8h-6l-9-14-6-13-4-9-4-6-3-1-1 102 1 6v58l-1 13v40l1 14-1 24-1 2 1 46-1 30 1 28 6 7 6 1 1-3v-20l1-17v-33l1-6-1-3v-94l-1-28v-64l11-3 3 9 6 15 6 10 10 24 1 4h-10l-2 1-1 4-2 22-1 7v39l1 8v57l-1 8v34l1 4 1 42 4 6 6 4 28 12 10 4 13 4 11 2 12 4 20 4 8 2h12l5-5v-8l-6-17-8-16-8-14-10-21-1-10 6 1 5 10 9 21 12 22 5 11 9 28 6 16 12 35 2 11 1 28-2 10-2 15-1 2-1 11-3 4-3 11-5 8v14l4 6 4 2 9-2 5-2h18l16 4 15 8 9 8 8 7 7 7 9 14 8 15 11 25 10 16 5 9 5 10 6 25 5 8 4 5 8 17 16 36 8 16 10 23 8 14 4 9 8 16 5 12 7 17 11 19 10 15 10 21 9 26 7 15 11 27 9 15 10 18 10 19 16 28 10 13h4l-1-5-8-13-6-11-7-16-1-3h9l8 14 7 14 4 1-1-7-10-23-9-14-10-21-6-15-8-18-9-20-3-7-9-16-8-16-7-16-8-16-9-21-5-12-9-17-8-16-9-21-3-8-8-16-7-13-6-9-13-28-5-10-4-6-6-16-12-26-5-13-8-17-1-5 5-1 5 5 7 6h8l4 2 1 2v6l-3 4-3 1 1 9 11 23 8 17 1 8 1 5 5 6 13 22 12 23 6 12 5 9 2 10 9 22 7 10 5 8 3 1 11-1 3 3-1 6-6 7 1 8 8 21 1 1 14-1 1 4-6 8-2 4 7 16 8 15 10 23 10 19 8 16 7 16 10 18 7 16 4 6 5 13 6 11 7 8h4v-5l-7-10-6-12-2-10 1-3 3-1 3 3 6 13 3 6 8 7h1l-1-9-11-21-6-13-2-9-5-6-3-1-1 4 2 7v7l-7 1-8-15-5-11-3-11-5-5-9-17-4-7 1-5h7l3 5 8 15 2 5v10l14 8 7-1 5-4 4 1 4 10 3 16 5 9 4 10 4 8 5 5h2v-7l-6-16-4-9-7-29-5-15-2-10-3-5-1-11v-27l-8-10-5-4-3-5 2-6 2-5 1-8-1-29v-9l-5-3-12-3-3-2h-11l-5-5-8-15-7-14-7-17-10-18-11-25-12-22-8-16-11-23-10-19-4-11-2-3h-2l-4 4-3 1-3-1-2-6v-3l7 1 4 1 2 2-1-7-7-14-4-3h-12l-5-5v-7l3-5 1-11-3-10-13-23-5-1h-7v-7l3-8-1-9-4-10-7-11h-14l1-7 7-7-1-4-5-10-2-8-4-6-3-1h-9l-5 3-9 5-5 1-1-8 3-5 9-3 8-8 2-1v-8l-8-18-9-14-2-2h-10l4-10 1-6-5-15-4-14-4-10-5-17-2-4-4 1-5 5-10-1-2 2-1 12-5 6-4 2-14-1 1 5 3 5v5h-10l-2 6 1 23 1 14 1 1h14l2 2 1 7-1 1h-13v13l3 6 5 6-1 8-3 10-4 5 1 4 8 7 8 4 10 4 9 6 6 7 5 4 9 11 7 10 4 9 3 5 8 3 4 6 1 9v8l6 12 2 3 14 1 3 4 1 6-3 4h-7l-4-2h-7l-4-5-7-11-5-11-2-7-7-9-9-15-8-14-9-11-11-11-11-7-2-2-5-1-16-1-7-4 1-9 4-22v-22l-1-21-3-2-7-31-5-15-4-7-3-11-6-15-8-16-12-25-11-23-9-16-12-19-9-11-4-9-3-11-1-6-9-24-8-20-5-11-5-12-8-19v-5l6-9-2-4-5-3h-4l1 8-2 1-3-1-4-6-3-12-9-12v-6l6 1 8 7h2l-1-7-2-3v-7l4-7 2-8 14 1 9 6 2 10 4 1-1-17-4-6-6-4-9-14-10-4-1-6 3-5 7 1 6 8 2-1v-6l-4-6-8-7-3-3-1-7 1-3v-7l-10-9v-13l-7-21-10-23-6-13-6-12-6-9-7-20-5-11-6-19-7-21-4-21-5-22-3-15 1-3 2-31 2-15 4-9 3-11 6-10 7-14v-2l-2-1h-7l-12 5-8 7-10 11-6 12-5 19-1 12-4 9 1 13 5 15-1 7-5 10-3 3h-10l-9-6-3-5-1-5v-7l3-12 8-4 2-3 3-19 8-26 6-14 9-10 7-8 8-7 9-5 7-2h18l7 3 1 4-7 14-8 10-10 20-2 14-1 5v7l-2 10v20l5 30 5 15 7 25 10 25 11 26 5 12 14 27 12 31 5 16 13 25 5 12 8 18 8 24 4 8 6 21 8 21 6 29 4 20 1 2v20l-3 10-2 10-6 7-5 5-1 4 6 19 7 8 9 6 3 7v13l3 10 11 22 8 12 6 7 10 6 7 4h9l6-4 10-10 4-8 3-14v-15l-2-17-1-9-1-4 3-7 5 1 12 9 13 8 9 3 25 5 2 2v7l-4 9-4 7v11l-1 9v32l3 16 7 27 2 7v7l6 11 3 10 14 29 7 16 9 17 7 15 4 10 10 19 10 24 16 35 5 8 4 9 2 4 2 9 14 25 4 12 6 10 8 16 8 15 19 38 13 30 14 30 9 19 5 10 3 2 1-5-1-6v-12l3-18 2-2 3 3 2 13v30l-1 7 2 9 2 2 8-1 8-3 1-1-1-7-4-5-5-5-2-4v-11l3-5 6-5v-13l-5-3-9-4-4-3-6-1-1-7v-32l-1-10v-12l1-5v-56l1-28-2-5-2-23-4-22-1-2h-6l-2 1-1 7v36l-1 10v13l-3 25v25l1 6v17l-3 17-3 4-4-1-10-21-4-10-8-16-9-17-8-21-8-14-8-16-7-16-3-8-10-15-10-23-8-18-8-16-8-17h-2l-2-4-11-28-5-19-7-15-5-15-9-25-8-20-5-22-1-16 1-18 2-10 2-16 3-7 12-26 2-10-4-9-5-4-4-1-21-2-18-6-17-9-9-8-18-22-10-13-14-23-22-44-10-19-16-33-6-12-9-16-8-16-8-17-16-24-10-22-11-24-6-15-7-20-8-16-10-24-7-14-11-29-6-12-7-36-6-28-2-6v-12l4-9 4-7 6-12 7-9 12-6 16-5 2-4-8-15-8-5-13-5-9-1zm333 18-16 3-19 7-16 9-1 7 9 3 68 9 25 4 15 4h7l5-5-4-7-11-12-14-10-10-6-13-4-14-2zm-92 7-1 1v7l3 6h5l1-4-4-8zm-13 13-2 4h4l-1-4zm6 16-8 2-10 1-2 3v13l4 4h22l19 3 23 1 47 5 31 6 9 2 3-9 1-9-21-7-26-5-22-4-16-2-10 1-9-2-26-1-4-2zm-41 5-8 2-1 7 1 8 2 2h11l4-1 1-6-2-10-2-2zm-29 3-13 3 1 7 4 9h12l4-1v-11l-2-7zm-27 4-12 3v11l2 4h11l6-2-1-9-3-7zm-44 4-2 1 1 11 2 7 1 1h10l7-3-1-10-3-6-1-1zm-21 4-4 1v8l4 13h6l4-4-1-13-3-4zm-19 8-4 4 1 8 4 5 5 1 3-4-1-9-5-5zm328 2-1 1v6l4 4 4-2 1-7-2-2zm-157 3-4 4v10l4 5 4 2h28l51 5 35 5 23 4 9 2 1-2v-11l-2-2-24-6-12-4-20-3-25-2-9-2-24-2h-19l-10-3zm-26 3-7 3-1 1 1 8 4 5h9l5-2 1-1-1-8-2-5-2-1zm-35 2-4 1 1 7 3 6 2 2h8l7-2-1-9-2-5zm-26 3-6 2-1 3 3 9 5 4h8l5-3-1-7-3-7-2-1zm-29 6-8 3 1 13 2 2 12-2 4-3-1-9-2-4zm-24 5-10 3 1 8 4 5 7 1 2-1v-16zm-23 8-1 1v7l3 5h6l1-3-4-10zm326 7-2 4 5 1v-4zm88 5-1 2 3 18 1 13 4 8 3 50 2 8 8 6-1 6-6 5-1 3v14l5 6 5 4-2 10-10 2-1 13v12l1 7 12 3h6v-28l2-16 1-4 2-22 4-18 2-19v-5l-2-1-6 2-2 1h-6l-4-4-1-9 3-5 2-2h7l5 4 6 1 4-9 2-9 3-8 1-10 4-10-2-4-4 2-6 9-6 4h-7l-15-4-7-18-3-7zm-270 1-5 2 1 8 4 3 11-2 1-1v-6l-2-3zm47 0-5 4-1 2v20l4 14 5 13 10 11 13 10 2 1 16 1 20-6 8 1-1 6-11 10-11 4-14 2h-7l-15-4-15-8-5-6-2-4-9-5h-10l-4 4 2 5 7 8 4 6 5 3h3l-4 10 5 6 15 10 14 6 16 5 7 2 9 1h9l10-1 5 1v6l-4 1h-30l-17-4-12-5-16-6-9-6-8-6-5-1v3l4 6 15 11 10 5 31 9 8 2 15 1 33 1-2 5-10 4h-12l-18-1-10-1-22-6-15-4h-7l2 4 8 4 19 8 9 3 1 1-1 8-1 3v9l3 7 7 7 5 4 3 5 1 10 4 5 6 4 4 11 4 14 2 4v13l-5 12-7 12-5 4-5 3 1 7 5 4 2 1h8l10-4 4-5 2-7 4-2 10 4 4 2 4-1 5-10 3-16v-9l-2-13-7-11-8-11-8-7-1-3 5-3h8l7 4 5 5 6 7 11 19 5 8 13 27 6 25v16l-5-5-3-7-4-17-3-6-6-1-8 9-7 10-22 4-22 7-13 1-10-3-8-7-5-9v-7l5-8 10-6 4-5 2-5v-21l-4-17-7-13-14-13-8-7-13-16-9-10-7-7-9-11-13-16-8-13-12-23-11-29-3-11-2-18-3-12-1-28-3-6h-23l-14 3-30 5-20 5-15 6-22 8-8 5-2 4 2 9 18 45 16 33 12 29 14 27 6 12 6 15 24 54 9 19 10 18 12 23 12 27 10 18 8 18 6 9 7 10 6 10 9 12 6 7 8 12 10 8 12 6 18 4 21 2 7 3 7 8 4 9 1 2v7l-6 20-4 13-6 28-3 19 3 19 5 16 9 23 4 9 4 5 13 4 22 5 17 3 16 6 21 5 9 2 12 1 5-3 2-3 1-5 1-79 1-11-1-4v-175l-1-22v-182l-1-33v-34l1-14-2-31-2-15-4-12-7-8-9-8-10-5-9-3-16-1-12-3h-9l1 3 9 7 4 2 2 4 10 15 3 9 3 12v7l-4 14v9l3 6 9 10 4 8v8l-6 11-10 10-11 7-9 7-4 5 2 6 8 11 10 17 7 10 9 16 10 40 3 9 1 9v36l-2 12-4 13-5 21-7 17-9 14-9 12-8 9-13 10-16 9-24 5h-11l-12-4-10-7-3-1-1-3h-2l-9-18-2-9v-14l3-9 7-14 8 1-3 8-4 10-1 4v15l3 12 6 8 8 7 10 4 8 1h11l10-2 17-7 10-8 7-6 10-14 9-15 8-20 5-21 2-18v-32l-6-28-10-24-8-14-10-14-14-15-13-15-7-7-6-4-3-8 4-5 6-3 17-4 16-6 7-6 6-10 5-14-2-6-4-6-5-5h-2l-2-4-3-4 1-15 3-15v-8l-3-7-3-5-2-5-8-7-15-7h-11l-6 3-2 2v7l2 7v14l-2 4-4 1-3-2 1-9-3-9-4-8v-7l7-10 10-4 9-1v-4l-10-3-22-3-12-3-34-3zm-396 30-12 6-7 3 1 14 2 5 3 1 3-2-1-13 8 3h5l1-2v-11l-1-4zm351 5 1 5 4 2 2-5-3-2zm-384 11-3 3 1 14v9l6-1 3-2-1-19-1-4zm392 0-2 4 1 6 5 3 7-2 2-3-1-5-5-3zm-403 4-9 6-13 11-9 7-14 11-15 13-15 14-8 7-11 12-7 8-22 22-8 11-9 11-9 10-15 15-14 19-9 12-13 18-9 11-14 15-11 14-12 13-9 11-9 13-3 5 1 5 18 12 13 13 8 7 17 17 8 7 9 9 7 6 9 11 9 10 7 8 5 5 10 9 5 5 11 12 12 13 12 12 8 7 9 10h2l2 4 14 10 9 8 11 7 15 13 12 10 17 13 12 7 10 7 13 8 23 14 12 7 19 9 16 8 20 9 8 4 15 6 16 8 21 8 10 2 14 4 21 5 24 3 2-8v-8l-4-4-56-18-6-2-7-1-18-10-15-8-12-5-15-8-12-6-9-7-12-7-7-3-27-16-6-5-14-7-12-9-7-6-16-12 1-6h13l13-4 2-1-1-5-8-2h-19l-8 10-5-1-19-14-10-9-17-17-1-5 2-1 31-1 11-1-1-6-4-6-8-1h-21l-10 1-3 2-2 11-6-4-10-9-6-8-1-4h-3l-6-4-9-11-8-9-7-11-10-11-8-11-14-17-8-11-6-8-16-17-21-21-2-6 5-10 8-8 7-8 20-20 7-11 22-22 11-16 12-12 9-12 11-11 8-12 13-15 9-10v-2h2l7-8 19-19v-2l4-2 7-8 9-11 9-8 9-7 3-4 1-4 1-14v-16zm788 3-2 2 1 5 4 4 3-3 2-5-2-2zm21 7-3 3-2 3v6l5 5 6 4h2l2 5 4 6 8 4 9 8 14 19 7 9 8 7 6 5 5 9 8 9 15 25 10 18 10 16 8 16 10 21 3 22 3 8 4 1 16-5 17-6 5-1h16l11 4 5 5v8l-5 5-8 4-2 3-14 4-9 6-13 12-12 14-9 13-3 4-9 27-9 25-6 31-3 18-1 22 3 36 3 37 3 17 6 23 4 11v9h-7l-7-4h-7l1 5 4 4 3 1 15 1 6 1 6-9 4-7-1-9-3-8-4-24-3-15-1-25v-53l2-22 5-37 4-15 7-19 5-16 10-19 7-11 5-8 8-4 12-5 6-3 28-1 3-2 1-3v-16l-2-10-6-8-10-7-13-5-15-1-13 3-11 4h-13l-5-8-16-38-13-24-12-18-11-15-4-8-12-13-7-7-9-12-12-13-9-10-4-4h-2l-2-4-13-13-7-8-10-9zm-779 23-1 5 2 3h5l1-1v-6l-1-1zm16 0-1 4 1 2 4-1-1-5zm-36 1-1 1 1 7 2 1h6l2-2-1-7zm790 18-2 3 3 5 3-1 1-5-2-2zm16 1-1 1v7l2 2h8l1-5-8-5zm-823 4-7 5-1 5h10l24-2 3-2 1-5-2-1zm55 7 1 12 3 15 5 1 1-1-1-10-2-7v-7l-2-3zm-12 9-6 4-6 8-8 8-7 8-10 12-10 14-12 18-13 21-16 33-8 20-13 34-2 5-1 9v38l5 16 9 22 13 26 4 9 7 10 14 18 9 12 6 10 7 7 9 11 9 10 8 7 7 8 4 4h2l2 4h2l2 4 13 11 20 16 14 10 19 13 14 9 21 13 21 9 18 9 26 8 8 6 15 5 9 4 4-1 1-8-3-5-28-14-12-5-18-10-19-13-15-10-13-9-12-11-15-15-10-8-9-9-8-7-10-9-8-7-16-16-9-13-14-22-8-13-9-15-10-19-10-24-16-45-3-16 1-10 4-16 5-12 9-23 8-18 10-17 12-18 10-18 7-16 8-9 2-13-2-21-2-6zm763 0-3 3-3 5v5l1 1 7-1 1-3v-8zm38 0-4 1h-12l-3 1 1 3 10 3 7 5 6-1 2-3-1-6-4-3zm-844 5-20 1-11 7-3 5 1 1h21l18-2 13-4 3-4v-4zm855 16-14 4-1 3 4 6 7 3h13l11-2-2-5-7-8-2-1zm-37 4-3 2v2l-4 2-1 2 3 5 5 2 6-3 4-5-1-5-4-2zm-846 5-15 2-9 4-8 8-1 3 2 1h8l19-3 19-1 7-2 6-10v-2zm807 7-3 4-1 8 2 3 4-1 2-4v-9zm-25 2-1 1v32l-1 80-1 16 1 45 2 7 2 1 5-4 5-7 8-18 1-1h9l-1 7-5 10-6 10-5 11 1 6 5 10 11 11 5 2 23-1 9-3 8-8 11-17 1-1 9 1-1 7-6 16-2 9v34l1 22 3 26 4 20 2 15 7 26 9 31 1 11 7 19 9 26 12 26 7 16 8 16 10 14 10 13 5 3h2l2 4 7 7 11 9 15 12 9 5h18l14-3 10-5 10-9 6-10 3-13v-21l-3-14-6-17-6-12-9-10-14-9-10-4h-12l-12 4-5 6-3 9-1 6-1 20 3 15 7 14 9 12 6 6 7 1 6-3 4-7v-7l-2-7v-6l10-1 4 5 2 7v7l-3 8-8 9-11 5-6 2-6-1-9-6-7-8-8-14-10-21-9-12-12-14-6-8-9-17-10-24-3-9-2-8-4-10-5-16-7-34-5-37-1-5v-7l1-3-2-9-1-15v-40l1-32 5-14 1-15 3-7 4-5 2-1 14-1 4-2v-6l-2-3-8-2-14-1h-20l-12 2-7 6-9 15-14 10-9 5-3 2-4-1-4-5 1-6 11-17 6-12 4-5 1-31v-9l1-5v-9l-1-5-1-18-7-13-11-3v-6l3-7v-5l-4-1-6 7-6 10v6l5 5v7l-3 9-1 6v51l-2 7-7 1-2-7 2-18-2-18-1-12v-8l-3-10-6-25-4-11-8-21-3-8zm123 8-12 2-6 5 2 7 6 7 7 1 22-5-1-5-7-8-4-3zm-83 5-6 7-3 6v5l1 1h5l4-8 1-3v-7zm20 1v4l7 8 4 6h7l7-2 3-4v-7l-5-4-5-1zm-840 3-14 3-3 3v6l1 2h9l8-1 7-8 2-5zm-43 2-11 11 1 4 6 1 12-1 6-8 1-4-1-2-4-1zm748 17-1 9 1 7h2l-2 5-1 10 2 11 1 1h5l8-7 2-5v-23l-3-3-12-5zm214 2-11 1-5 3-1 3 4 8 3 3 27-1 3-1-1-6-4-6-5-4zm-940 5-9 3-5 6v3h17l7-3 3-5-1-4zm881 0-5 1-1 7 2 4 7 4 5 1 9-3 3-3-2-7-3-3-6-1zm-920 1-8 5-6 6 1 4h20l4-4 3-5-1-5-4-1zm981 22-5 1v6l4 6 2 2h10l5-1 14-1 1-2-3-7-5-4zm-949 1-19 3-3 2 2 5 2 2 20-1 4-4 1-7zm901 2-9 4-2 3 1 6 5 3 15-1 3-2v-7l-2-4-3-2zm-958 1-7 6-3 5v3l14-1 11-1 5-5v-5zm792 17-1 2v47l1 65 1 1h7l5-10 1-6-6-10-4-4-1-4 8-10 3-7-1-5-6-17 5-13 2-4v-7l-10-16zm242 5-21 2 1 5 7 10h13l14-3v-8l-2-5-1-1zm-985 1-19 2-6 4-5 5v3h18l12-1 4-5 2-4v-4zm-69 2-11 8-9 8v2l2 1h25l5-3 8-8 1-5-4-3zm978 0-10 8-1 4 5 3h15l3-4-1-5-6-5zm77 24-8 4-1 1v7l4 4 21-2 3-1-1-5-4-6-3-2zm-1e3 0-18 1-4 10-1 6 2 2h19l8-2 6-7 2-9-1-1zm954 0-24 3-11 1-2 2v11l3 2 44-2 10-2 1-3-4-5-12-7zm-1024 6-10 2-9 6-4 5v2l8 1 20-1 9-4 4-5 1-6zm1143 2-2 1 1 4 1 1h6l4-2-1-4zm-29 16-35 3-8 1-1 3 3 8h15l9-1h14l8 1 8-6 5-5-1-3-3-1zm-1053 7-12 1-5 3-4 7 1 6 2 2 9-2 21-4 1-1v-9l-2-3zm-93 2-6 5-2 5 5 6 6 1 15-1 8-5 2-4-1-5-2-1-12-1zm1011 3m-567 3 1 6 3 11 4 3 5 1 3-2-1-5-7-10-5-4zm682 12-38 4-11 2-4 4v8l1 1h23l30-3 10-6 6-7v-2l-2-1zm-656 7-1 1 1 9 7 14 4 3 3-1-1-7-8-16-3-3zm-443 1-13 3-1 4 7 8 3 2h12l7-4 1-1v-7l-6-5zm70 0-18 2-1 2 4 8 3 1h10l10-2 1-1v-10zm1019 20-43 3-5 5-1 6 1 3h19l9-3 2-1h9l7 1 5-4 3-9zm-664 2 1 6 5 11 2 5 5-1 7-6 1-4-4-3-8-4-4-3zm-349 2-14 1-3 1v6l4 7 2 1 15-1 7-1-1-6-4-7zm-66 3-5 3 3 5 6 5 4 2h7l6-5-1-6-7-3zm829 10-1 1-1 23 6-1 7-14v-5l-5-4zm228 9-26 5v6l4 2 19 2 14-1 3-3 1-9-4-2zm-989 5-4 2 2 8 6 1 11-2-1-7-2-2zm-51 1-3 2 2 5 5 5 2 1h15l3-1v-5l-4-5-4-2zm813 19-3 2v104h8l5-7 1-8-7-15 1-7 5-10 1-7-4-11v-18l2-7 2-4v-6l-3-5-2-1zm221 1-18 1-1 1v9l10 2h12l11-1 2-7v-5zm-974 3-1 3 4 7 8 5 7 1 3-2-1-7-5-6-2-1zm-35 1-5 3 2 6 7 9 2 1h9l9-2 2-1-1-5-5-5-7-5-4-1zm999 21-8 1-1 5 1 9 3 1h10l12-1 4-4 1-11zm-947 5-4 1-16 1-10 3-2 7 1 5h43l8-1-1-5-8-9-4-2zm952 20-11 4-2 2 1 10 5 1 19-2 1-3v-10l-3-2zm-747 24v6l4 2 1-5-2-3zm745 6-7 1-1 1 1 11 1 1h18l2-1 1-7-1-5-2-1zm-903 4-23 2-6 1 1 4 8 6 3 1h21l10-2-2-4-5-6zm163 1-4 6-2 7-1 11 1 7 5 1 3-8-1-11v-13zm-17 16-1 4 3 3 4-2-1-5zm760 6-5 3 1 8 4 5 8 1 7-2v-8l-2-4-6-3zm-220 10-1 1v8l3 3 6-1 1-2v-8l-2-1zm-900 12-4 4v10l3 16-1 6-19-3h-23l-8 4-5 4-7 10-5 13-1 4v20l3 19 4 8 10 10 10 5 4 1h18l9-4 5-4 6-9 2-6v-7l-5-10-3-2-14-2-1-3 2-4 13-5 6 1 13 8 9 9 9 14 14 30 7 33 1 6v33l-5 50-6 31-3 10-7 18-8 26-8 18-8 16-12 22-9 16-5 9-10 14-7 9-9 10-10 8-20 12-13 5-36 5-8 5-4 6-2 6v18l4 10 7 9 7 7 10 6 15 5 13 3 19 1 16-3 15-6 11-6 13-11 5-4 6-9 4-8 7-1 2 6 2 13v13l7 44 3 19 6 23 5 12 13 29 12 25 14 25 12 19 7 12 3 6 8 11 7 7 7 5 5-2h5v8l-2 5 6 8 4 5 3 1 10-17 3-6-1-4-7-10-9-2v-10l-7-14-10-10-4-9-17-33-12-22-8-16-10-24-12-34-6-22-7-26-6-27-1-13-1-10-3-22v-16l3-7 4-4 5-2 26-2v-10l-1-1h-24l-8 3-5 6-13 26-10 17-7 10-11 14-10 10-14 8-16 10-15 6-8 2h-20l-14-7-10-9-8-9-3-7 1-7 5-5 3-1 14-1 13-4 15-8 15-10 9-8 11-8 16-15 7-7 9-7 4-7 6-11 10-15 8-13 9-16 12-25 8-22 6-12 4-12 4-13 3-5 5-21 9-45 2-12v-90l-3-18-4-14-6-15-8-16-8-15-10-14-11-12-11-10-6-3zm372 1-1 6 1 2 4-1 1-4-2-3zm-116 7-2 3 5 5 8 4 7 1 4-5-1-6-4-2zm872 0-6 2-1 8 4 6 4 3 7-1 3-3v-12l-2-3zm-482 8-3 5 3 9 6 11 3 3 4-1-1-7-3-5-2-10-5-5zm16 0-2 4 3 4 4-1v-5l-2-2zm-43 13-1 5 3 7 5 5 4 1-1-7-4-9-2-2zm-323 3-2 1 1 4 6 4 6 1v-7l-7-3zm837 9-3 3 2 7 6 5h5l2-3-1-9-3-3zm-802 16-2 4 2 4 12 3 4-4-2-5-4-2zm285 0v4h3l-1-4zm258 2-1 2v11l2 7 3-1-1-15-2-4zm65 9-3 8-2 10-4-2-4-10-4 1-1 9 9 7-1 7-6 8v5l8-1 2 11 3 2 11 1v-13l-2-10v-31l-2-2zm-41 8-1 3 1 3h4v-6zm-520 3-1 5 6 5 4-1v-6l-7-3zm786 13-3 4v5l4 2 4-5v-5zm-1070 5-1 3 1 20 3 24 3 27 9 35 6 20 7 34 3 25 1 14 1 71 1 4v7l-3 19v21l-4 16-3 5-13-3h-18l-2 1v8l14 1 5 2 1 4-3 3-10 3-1 1v7l1 3 5 1h13l11 2 14 9 7 5 5 8 1 3v31l-2 19-1 9 2 25 1 6 1 34 3 17 6 26 15 45 4 8 6 9 4 9 2 6 3 4 5-1 5-5 7-12-1-7-6-8-7-24-3-7-4-18-5-17-3-7-4-16-4-20-2-22-1-17v-13l2-36 3-9 5-18-1-5-1-18v-23l2-3h3l1 15 4 4 6-3 2-2 1-11v-17-3h2v6 4l6 3 4-1 1-3v-10l-3-18-4-11-2-2-4 1-2 4h-5l-3-3h-3l-3 12-1 8-3 5-5-1-5-2-6 4-7 11-3 3-5-1v-8l5-20 4-23 5-23 1-12v-59l-3-29-6-36-8-32-7-23-9-21-16-34-9-15-3-2zm390 1-2 3-1 8 3 3 5-1 2-3v-8l-3-2zm19 6-2 5v7l6 1v-12zm16 2-1 9 2 5h6l1-4v-8l-2-2zm239 14-4 6-5 5v2l4 1 7-4 5 1 13 6 26 8 16 5 27 11 16 6 15 7 23 11 16 8 15 8 18 13 11 7 14 10 16 12 16 13 8 7 20 18 11 9 11 11 7 9 9 10 8 11 7 12 9 11 7 13 10 14 8 13 4 12 5 25v19l-1 6v14l2 10 5 5 7 1 8-1 3 3 4 9 9 11 6 7 10 7 9 5h5l13-11 8-9 7-10 6-3 8 1 5-5 3-21 1-12v-10l-5-11-2-10-9-19-12-19-7-16-6-5-4-2-6 1-5 2-8-14-10-14-8-10-9-11-10-12-10-15-4-4-5-1 1 6 14 17 9 12 14 19 7 10 8 13 2 10 2 1 1 8-5-2-4-2-11-20-9-13-10-13-8-8-8-11-10-14-8-11-11-12-5-6-3-2-4 1 6 8 8 11 6 8 8 11 6 8 3 9-1 1h-6l-12-17-9-11-10-10-7-8-12-15-9-6-9-7-8-7-5-2v4l4 4 8 7 11 11-1 5-2 3-4-2-8-8-11-9-13-11-28-21-12-10-19-11-16-7-21-12-19-10-9-4-19-7-15-7-19-8-16-5-47-16-22-9zm164 2-1 4h4v-3zm12 10-2 3v5l5 1 3-5-4-4zm-448 4-2 5v10l5 3h5l1-3v-12l-5-3zm373 4v4l5 2h6l1-3-8-3zm-353 4-1 10 3 2 4-1 1-9-2-2zm379 4-1 4 8 5 18 8 16 8 16 9 19 10 17 8 10 8 18 13 16 11 3 2 4-1-3-5-12-9-22-13-9-6-18-13-16-9-20-10-13-8-26-11zm-359 4-1 4 4 1v-4zm-145 3-3 2-2 6-2 20-3 29-6 46-3 19-4 10-8 15-5 22-1 2v6h6l5-7 3-5 4-2 6 3-1 9-5 12-8 16-2 3-2 19v12l5 17 4 13 7 1 11-1 8-4 6-7 5-5 3-13 1-25 10-1-2 9v6l9 17 11 11 11 4 7 1h9l8-2 5-3 4-5 4-11v-21l3-5 14-7 6-7 2-5v-12l-4-12-7-9-5-3h-11l-6 11-8 10-5 4-6 1-13-5-13-8-12-6-12-3-5-5 1-4 2-1 12-2 2-2-1-5-6-12-5-1h-7l-2-5 1-2 9-2 2-3-1-9-9-4h-2l-1-7 2-3 8-3 1-7-2-3-9-2-3-6v-3l9-2 2-2-1-5-6-4 1-6 5-6v-6l-2-3 1-5 1-3v-15l-3-8-6-5zm45 12-3 5-2 7v72l3 12 2 22 5 21 4 8 7 9 4 3 8 1 5-4 8-15 5-5 2-1h11l11 4 11 7 7 8 10 16 2 7-1 11-7 13-7 8-11 7-4 8-5 15-7 14-5 2-10 1-37 1-2 1-2 9v118l1 9 1 111 2 20 4 17 6 18 5 9 4 4 8 3h7l12-6 9-6 5 1 8 7 8 16 2 6 1 9v11l-5 19-9 20-6 10-7 9-12 7-10 5-12 4-6 1h-25l-16-3-10-3h-10l-5 6-5 17v7l3 6 11 12 11 9 18 11 23 12 8 6 11 4 26 10 19 7 28 9 41 9 6 1h12l7-4 4-8 5-14 7-10 6-5 8-3h16l8 3 8 7 7 14 4 10 5 6 4 2h15l29-6 21-6 43-17 17-7 15-8 17-8 24-16 22-16 14-11 3-5-15-15-8-7-23-23-7-8-9-9-9-11-10-11-11-14-10-13-10-11-7-9-7-7-13-18-11-18-8-14-5-9-5-5-10-13-11-17-9-11-7-7-7-10-7-11-11-16-8-9-7-8-10-11-7-9-8-8-10-4-16-9-11-3-7-1h-8l-13 3-8 5-4 5-2 7v21l5 15 12 15 3 3-1 7-7 8-7 3-5 1h-12l-15-3-13-5-8-5-9-12-6-12-4-14-1-5v-19l5-18v-6l-5-5-7-6-3-6 2-7 8-9 14-11 8-6 14-7 16-4h19l25 5 17 6h5l2-7-1-6v-13l5-12 8-7 16-7h9v5l-4 8-4 10-2 2-9-1-7-1-2 2 1 7 8 15 6 16 5 21 10 30 8 17 8 10 3 1-1-7-12-26-1-6 10 2 1-2-8-17 1-4 4-2h4l4 15 3 6 2 17 5 13 3 2-1-15-8-44 1-6 3-1h7l3 19 3 18 6 25 2 8 2 18 3 11 5 7 9 24 11 23 7 15 5 12 5 1 2-2-1-9-4-11-7-16-7-18-8-17-5-15-3-5-2-15-3-7-6-24-2-14v-5l7 2 3 3 5 24 5 22 2 12 3 1 2-1h6l3 5-2 4-6 4v3l3 2 6 2 8 14 9 24 7 20 16 32 12 21 8 18 14 23 10 15 7 11 10 11h2l-1-9-10-15 6 2 12 12 10 2 6 3 6 7 7 13 10 13 9 15 7 9 7 10 8 10 6 6 8-1 8-6 2-4-13-13-7-10-12-18-9-15-8-13-8-16-8-15-8-13-13-28-8-20-7-18-5-13-13-28-10-17-6-10h-8l-5 3-7 10-3 7v13l6 24 4 12 3 8v6l-5-1-7-11-8-15-5-15-3-12-6-15-5-10-5-16-3-12-5-23-4-18-2-18v-34l2-7v-9l-3-6-4-4-3-1h-10l-5 3-8 1-3-3-2-18-4-16-4-8-5-3-12-3h-7l-6 2h-6l-2-2 1-4 4-4 5-2 16-2 16 3 7-2 1-3-7-23-14-26-9-20-9-14-11-11-9-5-10-3-5-2h-9l-16 5h-18l-6-7-9-17-3-12 1-11 4-15 3-8 2-15 2-5-1-8-5-8-11-4-20-3-16-1-26-1-9-2-5-3-30-6-19-2zm404 3-2 6 1 4 5 1 1-2v-6zm-477 1-2 4-1 11-5 14v8l4 4 2 1h7l-1-5-5-3v-5l2-2 6-1 1-7-3-12-2-7zm494 4-2 13 2 4 11 6 9 3 5 6 9 5 15 8 5 4 15 9 11 10 11 9 5 4 6 7 6 5 5 5 9 10 8 7 7 7 9 11 11 12 10 13 9 10 8 14 6 11 9 10 8 14 7 16 10 19 10 24 10 30 6 21 9 41 1 5v23l-3 14-2 10-6 21-12 27-5 12-4 8-10 24-10 19-10 18-6 11-8 14-7 11-10 15-9 10-7 11-8 10-10 13-7 9-8 7-17 14-11 9-11 10-11 9-10 9-20 13-19 12-13 10-12 9-15 8-16 7-22 10-27 11 3 5 7 10 6-1 21-9 8-9h17l19-9 16-6 16-9 25-15 10-8 12-9 22-18 1-1h8l10 4 9-3 11-4 2-2-1-4-7-1-12 6-6-1-2-5 4-5 9-7 12-13 9-7 24-24 7-10 11-13 6-7 6-9 12-16 6-9 6-7 14-25 5-9 11-14 7-14 7-17 13-30 6-18 7-15 11-42 2-13v-8l-8-32-5-13-8-6-6-7-5-8-2-12-1-7-1-13-5-13-17-36-4-8-7-11-7-10-8-12-20-26-12-17-11-13-12-14-11-10-11-9-15-15-8-7-10-8-13-10-13-9-18-11-11-6-10-6-19-9-9-1-6-4-5-6zm-57 26-3 5 2 9 10 21 9 22 11 21 10 15 8 17 10 26 8 13 4 2h3l4-5 1-3 1-14v-43l1-42-6-9-5-5-20-12-28-10-16-8zm-690 17-1 1v9l5 1 2-2-1-7-2-2zm-2 25-3 3 1 5 6 2 8-1-1-6-3-3zm4 24-10 1-2 1v7l4 5 10 1 9-2 1-2v-7l-2-4zm245 3-4 5-1 8 3 1 3-3 2-4v-7zm578 19-1 1-1 17v25l-1 3v38l1 10 1 32-2 12 1 11 3 27 3 43 2 14 2 31 6 39 3 23 5 30 4 21 2 16 7 17 7 6 3 4-1 9-3 7 2 7 7 10 5 1 2-4-4-11-1-11-3-7-2-17-8-39-2-25-1-5v-23l-2-6v-18l-1-27-3-30-1-128-2-14-4-7-4-3-2-26-6-5-5-7v-34l-1-7zm-840 3-2 6v3l10 2h24v-10l-3-1zm-7 23-4 4-2 5v3l9 1h22l14-1 1-1v-11zm898 9-3 5-3 48v19l1 10 2 39 1 29 1 3 1 19 2 91 1 18 6 39 5 40 5 28 5 25 6 19 3 2 7-1 6-4 9-17 6-11 6-12 10-25 9-19 7-12 7-19 8-17 5-16 4-13 3-13 3-5 1-9-9-44-6-25-6-16-13-33-8-17-10-18-14-26-14-20-14-19-12-13-9-8-4-2zm-909 16-3 3-1 8 1 1h53l1-9-1-2-30-1zm-11 25-3 3-1 10 3 1h36l26-1v-13zm-16 25-2 3v8l5 1h29l2-5h8l4 4 4 1h18l8-1 2-9v-2zm866 13-4 6v14l1 1 7-1 5-5v-7l-3-6-3-2zm-684 1-3 3v6l2 2 4-1 1-2v-7zm-176 10-19 1-2 3-1 8 1 1 27-1 21-1v-11zm39 0-1 1v10h15l4 1h8l2-3 1-8zm1189 1 1 6 8 11 7 10 7 8 5 4 9 6 5 5 11 10 8 7 13 11 17 8 23 6 8-1 3-3-2-4-15-3-10-4-27-18-12-9-10-9-3-3h-2l-2-4-5-5-11-8-8-7-9-11-6-3zm-1265 24-4 4v4l2 1h8l5-3 1-1v-5zm337 0 1 5 4-1-2-4zm558 1-2 4v7l12 8h3v-7l-4-8-5-4zm370 11v9l1 7-4 5 1 6 3 7v8l-3 1-4-4-3-5-4-1-1 4 6 9 3 8 2 10 1 14 5 10 11 12 14 5 12 1 5-4 3-6v-8l-6-12-7-10-1-4 8 2 6 4 12 13 5 5 16 12 6 3 14 1h23l11-3 10-8 7-8 3-7 1-9-3-10-4-1-9 12-9 8-6 1-12-3-9 6-8-2-14-11-13-11-12-11-9-10-4-2-2 1 2 6 15 16 7 8 2 3v5l-7-1-11-11-8-7-7-8-8-11-5-10-8-8-3-7-3-6-6-3zm-927 2-2 2-3 16-1 11-8 17-4 11-2 12-1 13-7 13-5 10 1 7 4 5 8 7 8 6 4 1-1 5-6 7-2 6-2 37-1 35 3 8 3 2 1 5-4 5-7 2-1 9v9l6 8v5l-10 1-4 10-10 42-5 17-3 7-5 15-4 15-8 17v2l10 6v6l-6 1-8-2-5 10v6l13 5 1 6-3 3h-10l-9-3-3 3-8 13-10 14 1 4 6 10-1 7-7-1-3-1h-7l-2 6 1 9-1 2-14-2-2 1 1 5 7 7 6 1 12-12 15-10 9-11 9-9 10-13 12-16 7-10 7-13 5-4 8-15 9-16 6-16 3-12 4-10 1-5v-7l-2-1-16 3h-7l-5-2-1-2v-6l2-2 14-1 5-2h13l4-5 3-8v-11l-5-6-8-7-1-2v-8l5-10 7-7 3-2h7l5 3 4 5 2 5v10l-3 7v15l9 16 4 3h2l2-6 2-14 4-16-1-10-9-28-6-15-4-15v-19l1-5v-13l-4-5-13-4-3-6-11-6-1-4 3-6 6 1 7 4 9 4 6 2-1-18-6-17 1-7 4-15 1-7v-22l-2-24-6-7h-2l-1-10 1-18-3 1-3 15-4 2-3-1v-16l1-10 2-5zm-360 6-2 8 1 1 22 1 4-4 2-5-7-1zm67 3-7 1v10l26-1v-9l-2-1zm345 0-2 3-3 13-2 15-8 1-2 2-1 23-1 12v50l1 22 2 12 1 3 1 35v10l-2 3 1 5 4 16 3 11 1 1 7-1 1-2v-60l2-30 2-14 2-28v-15l-1-24-2-16v-23l1-7v-9l-2-7zm127 9-9 2-11 6-13 12-12 7-2 3 5 5 6 4 30 8 5 2-1 5-3 3-20-5-3 3-6 12-2 9v9l3 11 5 12 8 12 6 5 7 3 5 1h16l5-3 1-5-4-6-5-5h-2l-2-5-7-13-10-4-4-4v-4h14l1-7-2-1-12-1-4-2-1-4 5-1 10 3 5-1 9-16 5-4 5-2 11 1 1-5-13-9v-7l8 3 6 4 11 3 9 6 21 9 7 4 10 5 6 2 2-1-1-4-26-26-17-10-14-9-12-6-14-3zm-542 10-20 3-2 2 1 5h33l4-4 1-5-6-1zm79 4-15 2-1 1v9l2 2 5 1h15l11-2 2-2-1-7-8-4zm34 1-1 3 4 8 8 4 23-2v-4l-6-4-16-5zm-152 18-9 2-2 2v5l1 1 41 1 6-7v-3l-8-1zm1304 2-4 5-1 4 1 1h7l3-5-2-5zm-1196 6-3 2 1 7 3 6 1 1h22l4-3v-11l-2-2zm63 0-3 1 1 7 4 6 5 3 8-1 7-5 1-8-1-3zm-219 12 1 4 9 8 5 2h20l12-2 8-5 1-4-1-1-37-2zm1265 4-1 3 3 10 5 3 8-1 3-3-8-8-7-4zm84 1-4 2 1 6 4 4h11l5-2-2-8-2-2zm-484 6-1 1-1 11-2 5 1 12 8 31 3 6h4l8-7 7-8-3-11-9-22-8-15-3-3zm-688 4-11 1-3 2-1 3v8l1 1 24-1 2-1v-10l-1-2-3-1zm52 1-11 2-1 1 1 9 1 1h13l4-1 1-3v-9zm1136 12-15 2-8 4-1 5 6 4 7 1 17-3 5-5-1-7-1-1zm-97 4-2 6v3l4 1h21l7-2v-7l-1-1zm-1096 11-7 2 3 6 2 2 16 2 8-1-1-10-2-1zm46 0-2 1 1 9 1 1 13 2h5l1-1v-8l-2-4zm1169 0-4 2-10 14-10 18-14 29-22 33-13 16-4 6-12 17-13 16-8 9-8 10-8 9-8 10-11 12-8 7-9 10-5 5-13 12-11 9-13 11-16 13-10 8-13 11-15 9-12 11-9 6-5 3-12 11-10 6-19 11-18 12-11 6-11 5h-2l-6-8-5-1-4 5 9 7v4l-28 13-16 8-18 6-27 10-17 5 2 6 6 9 6 1 16-5 19-8 31-13 25-11 12-7 16-8 19-11 21-14 13-8 15-8 19-13 13-11 16-12 8-8 10-8 11-8 11-9 13-12 9-11 8-7 14-10 11-11 12-16 10-10 8-7 14-15 13-14 7-8 8-9 9-11 11-13 30-40 10-15 8-10 9-12 12-22 1-1v-5l-5-4-13-6zm-54 12-4 2-2 3 1 6 2 2h11l13-1 5-3 4-5v-3h-17zm-52 1-20 1-2 9 11 3h15l12-5 1-1v-7zm-1063 10-2 1-1 8 3 5 3 1h16l3-2v-6l-4-5-4-2zm-46 2 1 8 2 5 1 1h22l3-1v-8l-6-5zm1088 9-5 3-3 5-2 5 4 1h30l5-2 1-5-6-4-12-3zm69 3-10 2-8 4-1 6 3 2 14-1 14 2 5-6 2-8-1-1zm-1149 13 1 6 4 6h16l3-1v-10l-1-1zm46 0-5 1-1 2v8l1 1h21l1-4-2-7-1-1zm1030 11-9 1-3 3-2 4v4l7 1h23l5-3 3-9-2-1zm45 2-4 5v5l1 1 16-1 17-1 5-6 1-3zm-1111 13 1 6 5 5 8 2h7l1-1v-6l-3-5-5-1zm41 2-4 2-1 2v7l1 1h19l1-5-2-7zm1e3 8-4 5 1 5h28l3-3-1-5-2-1zm51 0-7 5v5l5 5h7l2-2 17-1 8-7 1-4-3-1zm-1078 18-3 3 1 7 3 3h6l3-2-1-9-3-2zm24 1-1 2 2 9 4 2h9l4-1v-9l-2-3zm1045 1-11 3-4 5v5l1 1h31l5-4 3-5-1-3-2-1-9-1zm-35 0-16 1-4 4-3 6v3l15-1 10 1 5-4 1-7-2-2zm21 24-12 1-5 5-1 7 10 2h17l7-5 3-4v-6zm-50 2-3 4v5l12 2h9l5-5 2-5-1-1zm-993 1 1 6 4 4 3 1 28 2 6-2-1-10-2-1zm1041 23-31 1-6 2h-14l-11-1-4 5-1 4 1 1h19l12-2h11l11 1 8-3 6-5zm-1018 3-7 2 2 4 7 7 6-1 4-4 1-4-4-4zm21 2-1 2v6l3 3h5l2-2v-7l-2-2zm252 7-4 2-1 5 3 4 4-1 2-3v-5zm-204 9-3 8-5 7-1 9 3 1 5-5 6-12v-6l-2-2zm919 1-38 2-8 1-2 2v3l10 3 29 2h9l8-4 4-5v-3l-2-1zm-700 6-2 2v5l4 1 2-3-1-4zm-275 3-4 2 1 5 4 4 5 2h5l3-4 1-5-5-4zm245 1-1 1-4 20-3 12 3 2 4-1 3-8h3v12l6 3 2-5 3-17 1-8-5-3-10-8zm46 1-3 7 1 4 5 1 1-11zm-263 2-2 2-1 8 4 1 4-5v-5zm37 8-3 4-2 5v5l4 1 6-9 1-3-2-3zm860 1-9 2-6 4-2 4 6 2h44l7-6 1-4-2-1-18-1zm-717 5-4 10-4 20-7 20-8 20-6 11-9 15-13 22-7 9-7 10-10 14-24 28-10 9-10 8-14 10-14 8-22 8-35 9-14 4-19 2-19 1-6 1h-17l-26-9-10-2-16-7-11-7-13-12-6-10-10-21-3-10-1-15 2-12 5-10 10-13 1-4-5 1-7 6-9 14-6 14-2 12v22l3 15 6 12 9 10 12 11 9 6 9 7 26 12 18 5 24 3h47l18-2 22-6 21-8 15-7 22-11 16-12 8-7 11-7 13-12 7-7 9-11 12-14 11-16 10-18 6-9 5-8 9-20 6-15 6-20v-2l22-3-1 13 4-1 6-1 7 4h3v-13l-9-4-3-5-9-5-3-7-4-8-9-10-5-5zm65 1-3 5-4 20 2 2h5l3-19 1-7zm14 8-2 2-1 13 1 2h5l3-9 1-6-2-2zm405 1 1 5 7 10 1 2h3l-1-4-6-11-2-2zm-617 2-4 5 2 4 4-1 1-7zm828 8-7 2-2 2v3h41l7-4 2-3zm-816 5-3 3 1 3 5-1 1-3zm-77 1-4 4-8 16 1 4 5 3 10-17 2-4-5-6zm12 17-8 14-2 6 2 2 5-1 6-12 3-4-1-4zm889-3-5 2h-23l-7 3-3 4v3l16 2 13-1 11-6 4-4v-3zm-629 4-1 7v13l2 2 4-1 1-11v-10zm-16 1-2 2-1 5v11l1 1h6v-18zm-232 12-5 10-1 5 3 1 5-4 4-7-2-5zm829 7-7 4-2 2v3l11 2h11l10-4 3-3v-3l-5-1zm-19 22-10 3-3 3 3 3h19l4-3 1-5-2-1zm174 40-6 3-4 5-2 7v16l5 10 5 4 4 1 1-5-5-9-1-10 2-11 4-7v-3zm22-29-17 4-14 7-8 7-9 13-5 10-2 8v12l2 9 5 10 5 6 8 7 10 7 11 5 5 1h18l13-4 9-5 5-5 9-13 2-7v-18l-4-10-5-6-9-4h-21l-11 4-5 5-2 5v10l6 5 10 5 10 9 3 5-3 6-8 6-2 1h-22l-8-4-11-8-6-9-4-9-1-4v-17l4-11 6-8 16-8 20-7 5-1h15l13 2 14 5 11 7 15 13 2 2h3l-1-7-5-6-8-7-10-8-9-5-12-4-6-1zm-254 36-10 3-2 2 1 4 5 1 8-4 2-2v-3zm-563 11-3 3-4 8v4h5l8-7 1-4-4-4zm876-4 1 14v11l-2 12-7 13-6 7-14 10-11 5-14 3h-14l-14-2-18-8-14-7-18-8-13-8-13-9-10-9-7-10-6-8-4-1 1 6 8 15 1 3-8-3-7-7-6-1 1 5 7 8 12 11 10 9 19 12 16 8 17 8 5 4 16 2 14 2h22l25-5 14-7 12-11 7-7 4-7 2-10v-31l-2-7-3-2zm-863 12-3 5-2 6v6l3 3 5-2 6-7v-7l-2-3zm651 12 2 6 9 10 8 7 12 11 3 5v3l-6-1-11-7-16-15-10-8-2-2h-3l2 5 7 8 14 14 16 14 14 8 8 5 11 6 12 6 14 4 29 6 7 1h50l21-7 16-8 11-11 3-4v-5l-5-1-14 9-11 6-6 4-6 2-21 3-11 1h-20l-18-3-10-4-24-14-17-9-19-12-10-9-15-14-9-9zm-631 1-5 3-6 7v4l10 5 10 2 5 5 16 4 12 7 43 14 16 6 39 8 22 5h3l-1 8-3 1-16-3-15-3-29-4-10-4-36-8-11-4-18-4-7-1-12-5-1-1-7 1-4 4-1 9 3 2 13 2 10 4 8 4 19 5 42 9 21 4 20 3 32 2h22l2-7v-25l-2-5-9-1-10-1-41-8-38-11-23-7-16-6-17-7-7-2h-8l-5-3-3-8zm217 6-6 3-6 9-4 11-2 12-1 75 4 21 4 10 4 5 6 2 8-1 9-6 2-6-1-1-15 1-6-2-3-5v-7l3-5 5-4 7-2 9-1 3-2 2-10 1-14v-28l-3-35-2-9-6-8-5-3zm-275 13-4 5 1 4 3 1 5-5v-5zm20 6-6 5-4 5 1 5 6 1 7-8 1-6zm896 3-1 3 2 2 4-1-1-4zm-878 4-8 10-2 3v4l6 3 5-1 6-7 3-9-3-3zm-191 1-6 3-4 3 1 5 2 1h7l9-3 3-3-2-4-4-2zm553-1-8 4-1 4v12l7-1 5-3v-15zm-25 7-3 1v16l4 1 4-2 1-11-2-5zm-22 6-2 1v7l1 5 4 1 5-3v-10l-1-1zm88 3-15 6-8 5v6l5 8h11l9-3 3-3-1-11-2-8zm-106 1-2 2 1 7 5 1 1-3-1-6zm66 12-11 5-1 7 1 8 5 1 10-5 3-4-1-10-1-2zm-27 9-4 2-1 3v10h6l3-2v-13zm-20 4-1 1v10l5 1 3-3v-8l-1-1zm-14 2-2 1v7l1 2h4v-8zm-54 47-5 3v5l3 2 7-1v-7z" fill="#295475"/>
<path transform="translate(1160,625)" d="m0 0h4l1 4-4 19-6 17-8 16-10 14-8 9-8 4-19 7h-12l-10-6-5-6-4-8-1-4v-11l5-10 7-5 3-1h7l7 2 3 3 1 6-3 4h-14l-3 2-1 6 3 5 4 2h10l5-5 5-12 1-12-3-8-3-3v-2l-4-2-7-3-11-1-12 3-8 3 1-6 5-6 11-5h13l13 5 11 8 6 7 5 11 4 13 3 1 4-1 2-4 4-7 6-15 7-25z" fill="#295476"/>
<path transform="translate(1422,1107)" d="m0 0 5 1 12 11 12 13 12 19 12 17 9 16 4 5v4l-7 2-5-5-10-17-7-10-9-10-14-21-12-12-4-6 1-6z" fill="#2A5576"/>
<path transform="translate(814,712)" d="m0 0 4 2 8 14 7 14 11 24 8 15 7 13 8 16v5h-5l-9-12-5-13-10-13-11-21-9-22-4-11-2-7z" fill="#2B5677"/>
<path transform="translate(1499,1183)" d="m0 0 7 1 5 6 6 12 10 19 6 16 5 15 1 7-3 4-4-1-8-14-4-9-9-20-7-19-9-11 1-4z" fill="#295475"/>
<path transform="translate(1256,1453)" d="m0 0 7 2 7 14 6 18 5 19v5l-5 1-7-3-4-6-3-11-4-11-1-9-7-9-1-4 4-5z" fill="#2A5576"/>
<path transform="translate(1009,378)" d="m0 0 9 1 17 6 8 4 21 3 4 2-1 6-2 2h-19l-24-8-10-6-4-6z" fill="#2B5677"/>
<path transform="translate(709,337)" d="m0 0h7l6 5 1 2v11l-3 6-5 5h-9l-7-3-3-4v-10l4-6 6-5z" fill="#285375"/>
<path transform="translate(658,609)" d="m0 0h6l1 1 1 11v54l-1 8-2 1-5-3-1-3v-23l1-4v-15l-1-3v-22z" fill="#2A5576"/>
<path transform="translate(777,542)" d="m0 0 12 1 4 2-1 9-2 6v6l3 5-1 5-8-1-5-5-8-20v-5z" fill="#295476"/>
<path transform="translate(709,1473)" d="m0 0h4l1 6-1 5-1 11-2 4-3 1h-10l-5-3-1-2v-8l2-5 6-5z" fill="#2D5778"/>
<path transform="translate(1069,1066)" d="m0 0 8 1 3 3v10l-5 5-18-1-3-1v-6l9-9z" fill="#285375"/>
<path transform="translate(1149,1211)" d="m0 0 6 1 9 11 2 6-2 5-2 2-6-1-8-6-3-6-1-6 3-5z" fill="#295476"/>
<path transform="translate(1493,1206)" d="m0 0 4 1 6 9 5 14-1 5-4 2-4-1-4-6-6-16-1-5z" fill="#295475"/>
<path transform="translate(1142,1273)" d="m0 0 5 2 4 8 1 8 6 5 2 8-3 5-5-2-4-6-10-20 2-6z" fill="#2C5677"/>
<path transform="translate(794,582)" d="m0 0h8l3 3 1 11-2 6-3 2-5-1-5-12-1-6z" fill="#2C5678"/>
<path transform="translate(1e3 987)" d="m0 0 5 2 5 5 2 3v5l-4 4h-8l-6-4-1-7 5-7z" fill="#2A5476"/>
<path transform="translate(1167,1321)" d="m0 0 7 1 5 5 2 5-3 5-2 2-8-1-5-6-1-8z" fill="#2D5778"/>
<path transform="translate(1073,1098)" d="m0 0 7 1 6 9-1 6-4 3-6-2-7-8 1-5z" fill="#285375"/>
<path transform="translate(1169,1291)" d="m0 0h7l6 5 1 4-4 6-1 1h-7l-6-4-1-7z" fill="#2B5577"/>
<path transform="translate(1015,1030)" d="m0 0h7l6 4 1 6-6 5-7-1-7-6 1-5z" fill="#285375"/>
<path transform="translate(1095,1143)" d="m0 0 6 1 5 4 1 5-4 7-4 1-6-4-4-5 1-5 2-3z" fill="#2B5677"/>
<path transform="translate(1026,970)" d="m0 0h11l4 4-3 7-4 2-9-1-4-6 2-5z" fill="#2C5677"/>
<path transform="translate(1238,1406)" d="m0 0 9 1 5 5-1 5-5 4-6-1-4-5v-7z" fill="#2D5778"/>
<path transform="translate(661,521)" d="m0 0h4v24l-1 2-6-1-1-1v-12l2-10z" fill="#295375"/>
<path transform="translate(1229,1448)" d="m0 0 5 2 3 5v6l-5 3-4 1-4-4-1-2v-7l3-3z" fill="#2B5577"/>
<path transform="translate(652,1634)" d="m0 0h7l5 5-1 7-2 2h-8l-4-3 1-7z" fill="#2B5577"/>
<path transform="translate(1260,1379)" d="m0 0 5 2 2 3v6l-4 4h-6l-5-4v-6l5-4z" fill="#2A5476"/>
<path transform="translate(1177,1262)" d="m0 0 4 2 1 2v7l-6 4-6-1-3-3 1-6 2-3z" fill="#285375"/>
<path transform="translate(763,1152)" d="m0 0 4 1 7 4 1 3-6 7h-6l-4-4v-6z" fill="#2B5677"/>
<path transform="translate(1105,1119)" d="m0 0h7l5 6v6l-4 2h-6l-5-5v-5z" fill="#295475"/>
<path transform="translate(1e3 965)" d="m0 0h7l3 3-3 9-5 2-7-3-1-5 2-4z" fill="#285375"/>
<path transform="translate(705,1362)" d="m0 0h6l4 2 1 2v6l-7 5-6-2-2-7 3-5z" fill="#2A5576"/>
<path transform="translate(662,575)" d="m0 0h3v23l-6-1-2-3v-14z" fill="#295475"/>
<path transform="translate(709,505)" d="m0 0h8l4 4-2 7-2 2h-7l-5-5v-5z" fill="#2A5576"/>
<path transform="translate(1217,1396)" d="m0 0 7 1 3 4v7l-3 3-7-1-4-6 1-5z" fill="#285375"/>
<path transform="translate(1250,1433)" d="m0 0 6 1 3 5v5l-4 3h-7l-4-6 2-5z" fill="#2C5677"/>
<path transform="translate(1e3 903)" d="m0 0h8l5 3v5l-5 4-6 1-4-3v-7z" fill="#285375"/>
<path transform="translate(991,919)" d="m0 0 5 1 3 4-1 7-3 3-6-1-3-3v-6z" fill="#2A5576"/>
<path transform="translate(609,1735)" d="m0 0h12l1 3-3 8-5 2-5-2-1-1v-9z" fill="#2D5778"/>
<path transform="translate(662,1080)" d="m0 0 3 1 1 19-1 10-2 1-3-2v-26z" fill="#335C7C"/>
<path transform="translate(977,932)" d="m0 0 5 2 1 1v8l-4 3-5 1-3-2-1-6 3-5z" fill="#2C5677"/>
<path transform="translate(1226,1367)" d="m0 0 6 2 3 6-5 5-6 1-3-5 1-5z" fill="#30597A"/>
<path transform="translate(652,1666)" d="m0 0h8l3 2-1 6-4 5-6-2-2-2v-6z" fill="#2E5879"/>
<path transform="translate(793,514)" d="m0 0 4 2 3 5-1 4-4 2-6-1-4-3 1-4 4-4z" fill="#295476"/>
<path transform="translate(1561,1214)" d="m0 0 4 1 5 8 1 8-4 3-3-3-4-10v-6z" fill="#2B5577"/>
<path transform="translate(1038,1056)" d="m0 0 5 1 5 5v7l-5 1-6-3-1-1v-7z" fill="#285375"/>
<path transform="translate(811,569)" d="m0 0h7l2 7-1 6-1 1h-5l-4-5v-7z" fill="#2C5678"/>
<path transform="translate(689,1389)" d="m0 0 7 1 3 3-1 5-3 4-5-1v-2l-4-2v-5z" fill="#295476"/>
<path transform="translate(1200,1326)" d="m0 0 6 1 2 2v6l-3 3h-5l-5-5-1-4 2-2z" fill="#2B5577"/>
<path transform="translate(1006,940)" d="m0 0h9l4 4-3 5-3 2-6-1-3-4z" fill="#2E5879"/>
<path transform="translate(1429,1802)" d="m0 0 7 2 8 6 1 4-8 1-5-3-4-6z" fill="#345D7D"/>
<path transform="translate(976,1855)" d="m0 0 7 1 1 1-1 9-2 2-6-1-2-6 1-5z" fill="#285375"/>
<path transform="translate(671,1576)" d="m0 0h8l2 2v5l-3 2h-7l-3-2 1-5z" fill="#2A5476"/>
<path transform="translate(1189,1353)" d="m0 0 5 1 2 3v5l-4 3h-5l-1-2v-7z" fill="#2C5677"/>
<path transform="translate(1634,1303)" d="m0 0 5 1 4 7 1 6-6-1-4-5-1-7z" fill="#2A5476"/>
<path transform="translate(702,552)" d="m0 0 9 2 1 6-3 3h-5l-3-5z" fill="#2E5879"/>
<path transform="translate(456,1576)" d="m0 0 9 1 2 4-4 4-6-1-3-4v-3z" fill="#2F5879"/>
<path transform="translate(732,359)" d="m0 0 5 3v6l-2 3-5-1-1-1v-7z" fill="#285375"/>
<path transform="translate(704,647)" d="m0 0 5 2-1 6-4 1-4-1-1-6z" fill="#3A6281"/>
<path transform="translate(1571,1234)" d="m0 0 5 1 1 6-2 2-4-1-2-2 1-5z" fill="#2F5979"/>
<path transform="translate(1116,1226)" d="m0 0 3 1 1 5-1 2-5-2-1-4z" fill="#2D5778"/>
<path transform="translate(807,694)" d="m0 0 4 2 2 9-4-1-2-5z" fill="#2D5778"/>
<path transform="translate(791,656)" d="m0 0 4 2 1 4-3-1z" fill="#527590"/>
<path transform="translate(1417,1100)" d="m0 0 3 2v3l-3-1z" fill="#7590A6"/>
<path transform="translate(717,734)" d="m0 0 3 1z" fill="#285375"/>
</svg>
